<?xml version="1.0" standalone="no"?>
<!DOCTYPE svg PUBLIC "-//W3C//DTD SVG 20010904//EN"
 "http://www.w3.org/TR/2001/REC-SVG-20010904/DTD/svg10.dtd">
<svg version="1.0" xmlns="http://www.w3.org/2000/svg"
 width="500.000000pt" height="500.000000pt" viewBox="0 0 500.000000 500.000000"
 preserveAspectRatio="xMidYMid meet">

<g transform="translate(0.000000,500.000000) scale(0.100000,-0.100000)"
fill="#02254b" stroke="none">
<path d="M1865 3123 c-40 -10 -84 -53 -95 -93 -12 -46 0 -90 48 -164 18 -28
32 -58 32 -68 0 -24 -28 -78 -39 -78 -16 0 -79 -123 -90 -175 -5 -28 -17 -75
-26 -105 -20 -68 -12 -150 18 -206 59 -105 265 -115 336 -15 36 50 47 143 27
216 -9 33 -18 72 -21 88 -2 15 -17 55 -34 89 l-29 62 19 38 c10 20 19 46 19
57 0 16 8 20 43 23 l42 3 1 73 c1 62 -1 75 -19 87 -12 9 -21 28 -23 51 -7 89
-102 143 -209 117z m77 -663 c29 -29 30 -33 26 -104 -4 -91 -22 -116 -80 -116
-67 0 -94 46 -86 147 4 46 10 61 32 80 37 32 71 29 108 -7z"/>
<path d="M870 2525 l0 -45 50 0 50 0 0 -165 0 -165 55 0 55 0 0 165 0 165 50
0 50 0 0 45 0 45 -155 0 -155 0 0 -45z"/>
<path d="M1250 2360 l0 -210 50 0 49 0 3 88 3 87 68 3 67 3 0 -91 0 -90 55 0
55 0 0 210 0 210 -55 0 -55 0 0 -80 0 -81 -67 3 -68 3 -3 78 -3 77 -49 0 -50
0 0 -210z"/>
<path d="M2170 2418 c0 -126 3 -159 18 -187 28 -56 63 -75 145 -79 85 -4 129
14 164 67 22 32 23 44 23 192 l0 159 -50 0 -50 0 0 -129 c0 -171 -11 -201 -77
-201 -55 0 -63 24 -63 187 l0 143 -55 0 -55 0 0 -152z"/>
<path d="M2715 2557 c-81 -37 -128 -146 -105 -249 23 -112 84 -158 206 -158
38 0 86 5 107 11 l37 10 0 109 0 110 -85 0 -85 0 0 -40 c0 -39 1 -40 35 -40
33 0 35 -2 35 -35 0 -34 -1 -35 -39 -35 -22 0 -47 3 -56 6 -43 17 -62 131 -31
191 25 49 99 64 172 36 19 -7 50 65 34 81 -17 17 -189 19 -225 3z"/>
<path d="M3060 2360 l0 -210 50 0 49 0 3 88 3 87 68 3 67 3 0 -91 0 -90 55 0
55 0 0 210 0 210 -55 0 -55 0 0 -80 0 -81 -67 3 -68 3 -3 78 -3 77 -49 0 -50
0 0 -210z"/>
<path d="M3480 2525 l0 -45 50 0 50 0 0 -165 0 -165 55 0 55 0 0 165 0 165 50
0 50 0 0 45 0 45 -155 0 -155 0 0 -45z"/>
<path d="M3901 2553 c-42 -21 -65 -71 -56 -123 8 -45 31 -69 104 -107 68 -35
84 -58 56 -79 -22 -16 -76 -12 -132 12 l-33 13 0 -49 c0 -45 2 -49 31 -59 53
-18 145 -14 190 10 48 24 74 75 65 127 -7 47 -29 68 -108 108 -49 25 -68 40
-68 54 0 27 39 35 96 21 26 -7 48 -10 50 -8 2 1 10 19 18 39 l15 35 -38 12
c-56 16 -150 13 -190 -6z"/>
<path d="M1545 1991 c-43 -18 -63 -68 -45 -110 28 -68 152 -68 180 -1 13 32 5
72 -20 95 -22 20 -86 29 -115 16z m107 -28 c10 -9 18 -30 18 -49 0 -44 -32
-74 -80 -74 -89 0 -112 111 -30 143 23 9 72 -1 92 -20z"/>
<path d="M2243 1990 c-28 -12 -43 -40 -43 -84 0 -45 37 -76 90 -76 38 0 90 31
90 53 0 6 -13 -1 -28 -16 -37 -35 -84 -36 -117 -2 -45 44 -22 109 42 121 26 5
37 1 57 -19 16 -16 26 -21 26 -13 0 32 -73 55 -117 36z"/>
<path d="M1721 1908 c1 -61 3 -72 8 -43 6 39 7 40 56 46 l50 6 -52 1 c-52 2
-53 3 -53 32 0 28 1 29 58 33 l57 3 -62 2 -63 2 1 -82z"/>
<path d="M1971 1915 c-18 -42 -31 -78 -28 -81 3 -3 8 4 12 15 5 18 14 21 59
21 44 0 56 -4 70 -22 15 -22 15 -21 2 12 -34 85 -58 130 -69 130 -7 0 -27 -34
-46 -75z m69 19 c11 -25 20 -48 20 -50 0 -2 -18 -4 -40 -4 -22 0 -40 4 -40 10
0 13 31 90 36 90 3 0 14 -21 24 -46z"/>
<path d="M2441 1915 c-18 -42 -31 -78 -28 -81 3 -3 8 4 12 15 5 18 14 21 59
21 44 0 56 -4 70 -22 15 -22 15 -21 2 12 -34 85 -58 130 -69 130 -7 0 -27 -34
-46 -75z m69 19 c11 -25 20 -48 20 -50 0 -2 -18 -4 -40 -4 -22 0 -40 4 -40 10
0 13 31 90 36 90 3 0 14 -21 24 -46z"/>
<path d="M2590 1986 c0 -12 72 -156 79 -156 4 0 24 36 44 80 19 44 32 80 28
80 -5 0 -23 -33 -40 -72 l-33 -73 -33 73 c-28 60 -45 86 -45 68z"/>
<path d="M2780 1910 l0 -80 68 2 67 1 -60 6 c-59 6 -60 7 -63 38 l-3 32 58 4
58 3 -57 2 c-57 2 -58 2 -58 32 0 29 1 29 63 33 l62 3 -67 2 -68 2 0 -80z"/>
<path d="M2942 1908 l2 -83 5 75 6 75 38 -72 c20 -40 41 -73 45 -73 4 0 24 33
44 73 l37 72 0 -72 c1 -42 5 -73 11 -73 6 0 10 33 10 80 0 104 -17 106 -66 8
l-37 -73 -36 73 c-48 97 -61 95 -59 -10z"/>
<path d="M3230 1986 c0 -2 -16 -38 -35 -80 -19 -42 -30 -76 -25 -76 5 0 12 9
15 20 5 17 15 20 60 20 45 0 55 -3 60 -20 3 -11 10 -20 15 -20 5 0 -8 36 -27
80 -20 44 -42 80 -50 80 -7 0 -13 -2 -13 -4z m53 -98 c-5 -9 -67 -11 -76 -2
-3 3 4 26 16 50 l21 45 22 -43 c12 -24 20 -46 17 -50z"/>
<path d="M3362 1908 l2 -83 5 75 6 75 55 -72 c30 -40 58 -73 62 -73 5 0 7 37
6 83 l-2 82 -5 -73 -6 -73 -53 71 c-29 38 -57 70 -62 70 -6 0 -9 -34 -8 -82z"/>
</g>
</svg>
